<svg width="15" height="17" viewBox="0 0 15 17" fill="none" xmlns="http://www.w3.org/2000/svg">
<path fill-rule="evenodd" clip-rule="evenodd" d="M12.9998 1.5H5.7998C5.52366 1.5 5.2998 1.72386 5.2998 2V11.4737C5.2998 11.7498 5.52366 11.9737 5.7998 11.9737H12.9998C13.2759 11.9737 13.4998 11.7498 13.4998 11.4737V2C13.4998 1.72386 13.2759 1.5 12.9998 1.5ZM5.7998 0C4.69524 0 3.7998 0.895429 3.7998 2V11.4737C3.7998 12.5783 4.69523 13.4737 5.7998 13.4737H12.9998C14.1044 13.4737 14.9998 12.5783 14.9998 11.4737V2C14.9998 0.895431 14.1044 0 12.9998 0H5.7998Z" fill="#D41E33"/>
<path d="M0 5.52637C0 4.4218 0.895431 3.52637 2 3.52637H9.2C10.3046 3.52637 11.2 4.4218 11.2 5.52637V15.0001C11.2 16.1046 10.3046 17.0001 9.2 17.0001H2C0.895428 17.0001 0 16.1046 0 15.0001V5.52637Z" fill="white"/>
<path fill-rule="evenodd" clip-rule="evenodd" d="M9.2 5.02637H2C1.72386 5.02637 1.5 5.25022 1.5 5.52637V15.0001C1.5 15.2762 1.72386 15.5001 2 15.5001H9.2C9.47614 15.5001 9.7 15.2762 9.7 15.0001V5.52637C9.7 5.25022 9.47614 5.02637 9.2 5.02637ZM2 3.52637C0.895431 3.52637 0 4.4218 0 5.52637V15.0001C0 16.1046 0.895428 17.0001 2 17.0001H9.2C10.3046 17.0001 11.2 16.1046 11.2 15.0001V5.52637C11.2 4.4218 10.3046 3.52637 9.2 3.52637H2Z" fill="#D41E33"/>
</svg>
