<svg width="35" height="54" viewBox="0 0 35 54" fill="none" xmlns="http://www.w3.org/2000/svg">
<g filter="url(#filter0_d_1633_11470)">
<circle cx="17.5383" cy="15.5764" r="15.5764" fill="url(#paint0_linear_1633_11470)"/>
</g>
<g clip-path="url(#clip0_1633_11470)">
<path d="M26.5748 10.7541C26.0633 9.84428 25.5083 9.67694 24.3781 9.6133C23.2491 9.5367 20.4102 9.50488 17.9507 9.50488C15.4865 9.50488 12.6464 9.5367 11.5186 9.61212C10.3908 9.67694 9.83451 9.84311 9.31834 10.7541C8.79156 11.6627 8.52051 13.2277 8.52051 15.983C8.52051 15.9853 8.52051 15.9865 8.52051 15.9865C8.52051 15.9889 8.52051 15.99 8.52051 15.99V15.9924C8.52051 18.7359 8.79156 20.3127 9.31834 21.2119C9.83451 22.1217 10.3896 22.2866 11.5174 22.3632C12.6464 22.4292 15.4865 22.4681 17.9507 22.4681C20.4102 22.4681 23.2491 22.4292 24.3793 22.3644C25.5094 22.2878 26.0645 22.1228 26.576 21.2131C27.1074 20.3139 27.3761 18.7371 27.3761 15.9936C27.3761 15.9936 27.3761 15.99 27.3761 15.9877C27.3761 15.9877 27.3761 15.9853 27.3761 15.9841C27.3761 13.2277 27.1074 11.6627 26.5748 10.7541ZM15.5914 19.5219V12.4511L21.4838 15.9865L15.5914 19.5219Z" fill="white"/>
</g>
<defs>
<filter id="filter0_d_1633_11470" x="0.961914" y="0" width="33.1528" height="53.1528" filterUnits="userSpaceOnUse" color-interpolation-filters="sRGB">
<feFlood flood-opacity="0" result="BackgroundImageFix"/>
<feColorMatrix in="SourceAlpha" type="matrix" values="0 0 0 0 0 0 0 0 0 0 0 0 0 0 0 0 0 0 127 0" result="hardAlpha"/>
<feMorphology radius="17" operator="erode" in="SourceAlpha" result="effect1_dropShadow_1633_11470"/>
<feOffset dy="21"/>
<feGaussianBlur stdDeviation="9"/>
<feColorMatrix type="matrix" values="0 0 0 0 0.0813278 0 0 0 0 0.442126 0 0 0 0 0.658606 0 0 0 0.13 0"/>
<feBlend mode="normal" in2="BackgroundImageFix" result="effect1_dropShadow_1633_11470"/>
<feBlend mode="normal" in="SourceGraphic" in2="effect1_dropShadow_1633_11470" result="shape"/>
</filter>
<linearGradient id="paint0_linear_1633_11470" x1="17.5383" y1="0" x2="17.5383" y2="31.1528" gradientUnits="userSpaceOnUse">
<stop stop-color="#E13347"/>
<stop offset="1" stop-color="#D31D32"/>
</linearGradient>
<clipPath id="clip0_1633_11470">
<rect width="18.8556" height="18.8556" fill="white" transform="translate(8.52051 6.55859)"/>
</clipPath>
</defs>
</svg>
